<svg xmlns="http://www.w3.org/2000/svg" version="1.1" xmlns:xlink="http://www.w3.org/1999/xlink" xmlns:svgjs="http://svgjs.dev/svgjs" width="500" height="300" preserveAspectRatio="none" viewBox="0 0 500 300"><g mask="url(&quot;#SvgjsMask1060&quot;)" fill="none"><g><path d="M82.5 247.5L511.5 247.5" stroke-width="5.5" stroke="#3a7cc3"></path><path d="M77 247.5 a5.5 5.5 0 1 0 11 0 a5.5 5.5 0 1 0 -11 0zM506 247.5 a5.5 5.5 0 1 0 11 0 a5.5 5.5 0 1 0 -11 0z" fill="#3a7cc3"></path><path d="M148.5 214.5L16.5 82.5L16.5 16.5" stroke-width="5.5" stroke="#3a7cc3"></path><path d="M143 214.5 a5.5 5.5 0 1 0 11 0 a5.5 5.5 0 1 0 -11 0zM11 16.5 a5.5 5.5 0 1 0 11 0 a5.5 5.5 0 1 0 -11 0z" fill="#3a7cc3"></path><path d="M313.5 82.5L379.5 16.5L511.5 16.5" stroke-width="5.5" stroke="#3a7cc3"></path><path d="M308 82.5 a5.5 5.5 0 1 0 11 0 a5.5 5.5 0 1 0 -11 0zM506 16.5 a5.5 5.5 0 1 0 11 0 a5.5 5.5 0 1 0 -11 0z" fill="#3a7cc3"></path><path d="M247.5 148.5L247.5 16.5" stroke-width="5.5" stroke="#3a7cc3"></path><path d="M242 148.5 a5.5 5.5 0 1 0 11 0 a5.5 5.5 0 1 0 -11 0zM242 16.5 a5.5 5.5 0 1 0 11 0 a5.5 5.5 0 1 0 -11 0z" fill="#3a7cc3"></path><path d="M247.5 214.5L511.5 214.5" stroke-width="5.5" stroke="#3a7cc3"></path><path d="M242 214.5 a5.5 5.5 0 1 0 11 0 a5.5 5.5 0 1 0 -11 0zM506 214.5 a5.5 5.5 0 1 0 11 0 a5.5 5.5 0 1 0 -11 0z" fill="#3a7cc3"></path><path d="M412.5 280.5L313.5 280.5" stroke-width="5.5" stroke="#3a7cc3"></path><path d="M407 280.5 a5.5 5.5 0 1 0 11 0 a5.5 5.5 0 1 0 -11 0zM308 280.5 a5.5 5.5 0 1 0 11 0 a5.5 5.5 0 1 0 -11 0z" fill="#3a7cc3"></path><path d="M82.5 49.5L115.5 16.5L214.5 16.5" stroke-width="5.5" stroke="#3a7cc3"></path><path d="M77 49.5 a5.5 5.5 0 1 0 11 0 a5.5 5.5 0 1 0 -11 0zM209 16.5 a5.5 5.5 0 1 0 11 0 a5.5 5.5 0 1 0 -11 0z" fill="#3a7cc3"></path><path d="M49.5 82.5L49.5 16.5" stroke-width="5.5" stroke="#3a7cc3"></path><path d="M44 82.5 a5.5 5.5 0 1 0 11 0 a5.5 5.5 0 1 0 -11 0zM44 16.5 a5.5 5.5 0 1 0 11 0 a5.5 5.5 0 1 0 -11 0z" fill="#3a7cc3"></path><path d="M49.5 181.5L16.5 148.5L16.5 115.5" stroke-width="5.5" stroke="#3a7cc3"></path><path d="M44 181.5 a5.5 5.5 0 1 0 11 0 a5.5 5.5 0 1 0 -11 0zM11 115.5 a5.5 5.5 0 1 0 11 0 a5.5 5.5 0 1 0 -11 0z" fill="#3a7cc3"></path><path d="M214.5 148.5L214.5 49.5" stroke-width="5.5" stroke="#3a7cc3"></path><path d="M209 148.5 a5.5 5.5 0 1 0 11 0 a5.5 5.5 0 1 0 -11 0zM209 49.5 a5.5 5.5 0 1 0 11 0 a5.5 5.5 0 1 0 -11 0z" fill="#3a7cc3"></path><path d="M478.5 148.5L478.5 115.5L511.5 82.5L511.5 49.5" stroke-width="5.5" stroke="#3a7cc3"></path><path d="M473 148.5 a5.5 5.5 0 1 0 11 0 a5.5 5.5 0 1 0 -11 0zM506 49.5 a5.5 5.5 0 1 0 11 0 a5.5 5.5 0 1 0 -11 0z" fill="#3a7cc3"></path><path d="M445.5 82.5L445.5 115.5L379.5 181.5L346.5 181.5L313.5 148.5L313.5 115.5L346.5 82.5" stroke-width="5.5" stroke="#3a7cc3"></path><path d="M440 82.5 a5.5 5.5 0 1 0 11 0 a5.5 5.5 0 1 0 -11 0zM341 82.5 a5.5 5.5 0 1 0 11 0 a5.5 5.5 0 1 0 -11 0z" fill="#3a7cc3"></path><path d="M16.5 247.5L82.5 181.5" stroke-width="5.5" stroke="#3a7cc3"></path><path d="M11 247.5 a5.5 5.5 0 1 0 11 0 a5.5 5.5 0 1 0 -11 0zM77 181.5 a5.5 5.5 0 1 0 11 0 a5.5 5.5 0 1 0 -11 0z" fill="#3a7cc3"></path><path d="M82.5 115.5L181.5 214.5L214.5 214.5L280.5 148.5L280.5 16.5" stroke-width="5.5" stroke="#3a7cc3"></path><path d="M77 115.5 a5.5 5.5 0 1 0 11 0 a5.5 5.5 0 1 0 -11 0zM275 16.5 a5.5 5.5 0 1 0 11 0 a5.5 5.5 0 1 0 -11 0z" fill="#3a7cc3"></path><path d="M16.5 280.5L247.5 280.5" stroke-width="5.5" stroke="#3a7cc3"></path><path d="M11 280.5 a5.5 5.5 0 1 0 11 0 a5.5 5.5 0 1 0 -11 0zM242 280.5 a5.5 5.5 0 1 0 11 0 a5.5 5.5 0 1 0 -11 0z" fill="#3a7cc3"></path><path d="M115.5 82.5L214.5 181.5" stroke-width="5.5" stroke="#3a7cc3"></path><path d="M110 82.5 a5.5 5.5 0 1 0 11 0 a5.5 5.5 0 1 0 -11 0zM209 181.5 a5.5 5.5 0 1 0 11 0 a5.5 5.5 0 1 0 -11 0z" fill="#3a7cc3"></path><path d="M412.5 313.5L445.5 280.5L511.5 280.5" stroke-width="5.5" stroke="#3a7cc3"></path><path d="M407 313.5 a5.5 5.5 0 1 0 11 0 a5.5 5.5 0 1 0 -11 0zM506 280.5 a5.5 5.5 0 1 0 11 0 a5.5 5.5 0 1 0 -11 0z" fill="#3a7cc3"></path><path d="M412.5 49.5L412.5 115.5L379.5 148.5L346.5 148.5" stroke-width="5.5" stroke="#3a7cc3"></path><path d="M407 49.5 a5.5 5.5 0 1 0 11 0 a5.5 5.5 0 1 0 -11 0zM341 148.5 a5.5 5.5 0 1 0 11 0 a5.5 5.5 0 1 0 -11 0z" fill="#3a7cc3"></path><path d="M511.5 313.5L445.5 313.5" stroke-width="5.5" stroke="#3a7cc3"></path><path d="M506 313.5 a5.5 5.5 0 1 0 11 0 a5.5 5.5 0 1 0 -11 0zM440 313.5 a5.5 5.5 0 1 0 11 0 a5.5 5.5 0 1 0 -11 0z" fill="#3a7cc3"></path></g></g><defs><mask id="SvgjsMask1060"><rect width="500" height="300" fill="#ffffff"></rect></mask></defs></svg>