<?xml version="1.0" encoding="UTF-8"?>
<svg xmlns="http://www.w3.org/2000/svg" xmlns:xlink="http://www.w3.org/1999/xlink" version="1.1" id="Capa_1" x="0px" y="0px" viewBox="0 0 512 512" style="enable-background:new 0 0 512 512;" xml:space="preserve" width="512" height="512">
<g>
	<g>
		<g>
			<g>
				
					<line style="fill:none;stroke:#000000;stroke-width:40;stroke-linecap:round;stroke-linejoin:round;stroke-miterlimit:10;" x1="256" y1="40" x2="256" y2="75.131"/>
				
					<line style="fill:none;stroke:#000000;stroke-width:40;stroke-linecap:round;stroke-linejoin:round;stroke-miterlimit:10;" x1="375.726" y1="20" x2="375.726" y2="75.131"/>
				
					<line style="fill:none;stroke:#000000;stroke-width:40;stroke-linecap:round;stroke-linejoin:round;stroke-miterlimit:10;" x1="136.274" y1="20" x2="136.274" y2="75.131"/>
			</g>
			<g>
				
					<line style="fill:none;stroke:#000000;stroke-width:40;stroke-linecap:round;stroke-linejoin:round;stroke-miterlimit:10;" x1="256" y1="436.869" x2="256" y2="472"/>
				
					<line style="fill:none;stroke:#000000;stroke-width:40;stroke-linecap:round;stroke-linejoin:round;stroke-miterlimit:10;" x1="375.726" y1="436.869" x2="375.726" y2="492"/>
				
					<line style="fill:none;stroke:#000000;stroke-width:40;stroke-linecap:round;stroke-linejoin:round;stroke-miterlimit:10;" x1="136.274" y1="436.869" x2="136.274" y2="492"/>
			</g>
		</g>
		<g>
			<g>
				
					<line style="fill:none;stroke:#000000;stroke-width:40;stroke-linecap:round;stroke-linejoin:round;stroke-miterlimit:10;" x1="472" y1="256" x2="436.869" y2="256"/>
				
					<line style="fill:none;stroke:#000000;stroke-width:40;stroke-linecap:round;stroke-linejoin:round;stroke-miterlimit:10;" x1="492" y1="136.274" x2="436.869" y2="136.274"/>
			</g>
			<g>
				
					<line style="fill:none;stroke:#000000;stroke-width:40;stroke-linecap:round;stroke-linejoin:round;stroke-miterlimit:10;" x1="75.131" y1="256" x2="40" y2="256"/>
				
					<line style="fill:none;stroke:#000000;stroke-width:40;stroke-linecap:round;stroke-linejoin:round;stroke-miterlimit:10;" x1="75.131" y1="375.726" x2="20" y2="375.726"/>
				
					<line style="fill:none;stroke:#000000;stroke-width:40;stroke-linecap:round;stroke-linejoin:round;stroke-miterlimit:10;" x1="75.131" y1="136.274" x2="20" y2="136.274"/>
			</g>
		</g>
	</g>
	<g>
		<g>
			<path style="fill:none;stroke:#000000;stroke-width:40;stroke-linecap:round;stroke-linejoin:round;stroke-miterlimit:10;" d="&#10;&#9;&#9;&#9;&#9;M166.625,329.73l55.371-145.383c1.132-2.766,5.047-2.77,6.184-0.006l54.868,145.389"/>
			
				<line style="fill:none;stroke:#000000;stroke-width:40;stroke-linecap:round;stroke-linejoin:round;stroke-miterlimit:10;" x1="183.893" y1="293.522" x2="266.058" y2="293.522"/>
		</g>
		
			<line style="fill:none;stroke:#000000;stroke-width:40;stroke-linecap:round;stroke-linejoin:round;stroke-miterlimit:10;" x1="345.375" y1="243.835" x2="345.375" y2="329.73"/>
		
			<line style="fill:none;stroke:#000000;stroke-width:40;stroke-linecap:round;stroke-linejoin:round;stroke-miterlimit:10;" x1="345.375" y1="184.861" x2="345.375" y2="184.861"/>
	</g>
	<path style="fill:none;stroke:#000000;stroke-width:40;stroke-linecap:round;stroke-linejoin:round;stroke-miterlimit:10;" d="&#10;&#9;&#9;M433.989,275.726V138.011c0-33.137-26.863-60-60-60H138.011c-33.137,0-60,26.863-60,60v235.977c0,33.137,26.863,60,60,60h235.977&#10;&#9;&#9;c32.556,0,59.056-25.929,59.975-58.263l58.036,0"/>
</g>















</svg>
